<svg xmlns="http://www.w3.org/2000/svg" xmlns:xlink="http://www.w3.org/1999/xlink" width="14" height="14" viewBox="0 0 14 14"><defs><style>.a445{fill:#665e7d;}.b445{clip-path:url(#a445);}</style><clipPath id="a"><circle class="a445" cx="7" cy="7" r="7"/></clipPath></defs><g class="b445"><g transform="translate(1.64 0.865)"><path class="a445" d="M32.33,19.967a4.087,4.087,0,0,0-2.988-2.21,1.059,1.059,0,0,0-.673.136,3.536,3.536,0,0,1-4.012-.011.91.91,0,0,0-.709-.137,4.151,4.151,0,0,0-2.984,2.267.476.476,0,0,0,.029.536,6.665,6.665,0,0,0,11.3,0A.5.5,0,0,0,32.33,19.967Z" transform="translate(-20.894 -10.763)"/><path class="a445" d="M29.028,10.411a3.349,3.349,0,1,0-3.28-3.424A3.355,3.355,0,0,0,29.028,10.411Z" transform="translate(-23.336 -3.713)"/></g></g></svg>