<svg xmlns="http://www.w3.org/2000/svg" xmlns:xlink="http://www.w3.org/1999/xlink" width="18" height="18" viewBox="0 0 18 18"><defs><style>.a444{fill:#95ee9d;}.b444{clip-path:url(#a444);}</style><clipPath id="a444"><circle class="a444" cx="9" cy="9" r="9" transform="translate(-0.586 0.001)"/></clipPath></defs><g class="b444" transform="translate(0.586 -0.001)"><g transform="translate(0.278 0.021)"><path class="a444" d="M36.643,20.813a5.629,5.629,0,0,0-4.115-3.044,1.459,1.459,0,0,0-.927.187,4.869,4.869,0,0,1-5.525-.015,1.253,1.253,0,0,0-.977-.188,5.716,5.716,0,0,0-4.11,3.122.656.656,0,0,0,.04.738,9.178,9.178,0,0,0,15.565,0A.688.688,0,0,0,36.643,20.813Z" transform="translate(-20.894 -8.138)"/><path class="a444" d="M30.266,12.937a4.613,4.613,0,1,0-4.517-4.715A4.621,4.621,0,0,0,30.266,12.937Z" transform="translate(-22.427 -3.713)"/></g></g></svg>