<svg xmlns="http://www.w3.org/2000/svg" xmlns:xlink="http://www.w3.org/1999/xlink" width="13" height="13" viewBox="0 0 13 13"><defs><style>.a32{fill:#95ee9d;}.b32{clip-path:url(#a32);}</style><clipPath id="a32"><circle class="a32" cx="6.5" cy="6.5" r="6.5" transform="translate(0.472 0.472)"/></clipPath></defs><g class="b32" transform="translate(-0.472 -0.472)"><g transform="translate(1.107 0.287)"><path class="a32" d="M32.992,20.1a4.324,4.324,0,0,0-3.161-2.338,1.121,1.121,0,0,0-.712.144,3.74,3.74,0,0,1-4.244-.011.963.963,0,0,0-.75-.145,4.391,4.391,0,0,0-3.157,2.4.5.5,0,0,0,.031.567,7.051,7.051,0,0,0,11.957,0A.528.528,0,0,0,32.992,20.1Z" transform="translate(-20.894 -10.36)"/><path class="a32" d="M29.218,10.8a3.543,3.543,0,1,0-3.47-3.622A3.55,3.55,0,0,0,29.218,10.8Z" transform="translate(-23.197 -3.713)"/></g></g></svg>